<svg xmlns="http://www.w3.org/2000/svg" width="14" height="13" viewBox="0 0 14 13">
  <g fill="none" fill-rule="evenodd">
    <path fill="red" d="M13.8574689,0.709944444 C13.6449417,0.272277778 13.2300682,0 12.7738346,0 L1.22609911,0 C0.769865567,0 0.354992106,0.272277778 0.142464904,0.709944444 C-0.0598813551,1.12738889 -0.0458825573,1.61777778 0.179370825,2.02077778 L5.95323859,12.3593889 C6.17658305,12.7609444 6.56791308,13 6.99996688,13 C7.43202068,13 7.82335071,12.7609444 8.04733148,12.3601111 L13.8211992,2.0215 C14.0458163,1.61777778 14.0598151,1.12738889 13.8574689,0.709944444 Z" transform="matrix(1 0 0 -1 0 13)"/>
    <path fill="#FFF" fill-rule="nonzero" d="M6,4 L8,4 L7.8,6.99935927 L7.49103448,9 L6.5016092,9 L6.2,6.99935927 L6,4 Z M6.2,10 L7.8,10 L7.8,12 L6.2,12 L6.2,10 Z"/>
  </g>
</svg>
