<svg xmlns="http://www.w3.org/2000/svg" width="12" height="12" viewBox="0 0 12 12">
  <path fill-opacity=".7" fill-rule="evenodd" d="M6.48929929,7.90772536 C8.23153394,7.69274759 9.27289461,6.35961251 9.77,5.50360949 C9.225,4.56823651 8.032,3.06256446 6,3.06256446 C3.962,3.06256446 2.772,4.56411138 2.23,5.49742179 C2.41198683,5.80941791 2.66633917,6.18511913 3.00005685,6.547192 C3.00001897,6.54196208 3,6.53672755 3,6.53148848 C3,5.3929529 3.896,4.46892403 5,4.46892403 C6.104,4.46892403 7,5.3929529 7,6.53148848 C7,7.06016564 6.806805,7.54259099 6.48929929,7.90772536 Z M6,1 C10.363,1 12,5.50051564 12,5.50051564 C12,5.50051564 10.363,10 6,10 C1.637,10 0,5.50051564 0,5.50051564 C0,5.50051564 1.637,1 6,1 Z"/>
</svg>
