<svg xmlns="http://www.w3.org/2000/svg" width="12" height="12" viewBox="0 0 12 12">
  <path fill-opacity=".7" fill-rule="evenodd" d="M3.3085252,4.72418105 C2.83957685,5.14728682 2.49906658,5.6204051 2.27305538,5.99849962 C2.81568139,6.90572643 4.00348475,8.36609152 6.02563783,8.36609152 C6.31736154,8.36609152 6.59116366,8.33408352 6.84803983,8.28007002 L3.3085252,4.72418105 Z M-2.13162821e-14,1.40035009 L1.39290604,-7.10542736e-15 L11.9447418,10.5996499 L10.5508401,12 L8.42215308,9.86146537 C7.73714997,10.1695424 6.94362166,10.3665916 6.02563783,10.3665916 C1.68164281,10.3665916 0.051773491,6.00150038 0.051773491,6.00150038 C0.051773491,6.00150038 0.603360299,4.54513628 1.90665837,3.31682921 L-2.13162821e-14,1.40035009 Z M12,6.00180045 C12,6.00180045 11.7988799,6.52993248 11.3617922,7.21510378 L5.82202862,1.64971243 C5.89072806,1.64671168 5.95544493,1.63770943 6.02613566,1.63770943 C10.3701307,1.63770943 12,6.00180045 12,6.00180045 Z"/>
</svg>
