<svg xmlns="http://www.w3.org/2000/svg" width="140" height="38" viewBox="0 0 140 38">
  <g fill="none" fill-rule="evenodd">
    <path fill="#F16825" d="M31.7215854,16.814787 C27.2696304,17.2368458 19.0698447,17.6559059 12.3697911,16.0223961 C12.3697911,16.0223961 14.5691484,20.2647238 19.3967863,20.9634072 C20.2621318,21.0893501 22.9594001,21.0391229 25.6341725,20.9491637 C22.6002142,21.3614768 19.2903053,21.661341 16.6815212,21.497915 C16.6815212,21.497915 19.3990359,24.5205454 22.8004285,24.4448297 C23.6605249,24.4245889 26.5430102,24.0265192 28.9043385,23.6816755 C26.2258168,24.4935576 23.1408677,25.3099377 20.7862882,25.5798154 C22.9009106,27.2635525 25.0717729,27.1503537 25.9731119,27.0364054 C26.6547402,26.9509441 27.5733262,26.7492855 28.5504017,26.5056459 C28.0929834,26.8617345 27.6003214,27.1923347 27.0686663,27.4936982 L27.0724156,27.4944478 C26.9786824,27.5461744 26.8849491,27.5971513 26.7897161,27.6481282 C26.3173005,27.9030127 25.8178897,28.1376564 25.2974826,28.3460619 L25.2772362,28.3528089 C25.1302625,28.4112824 24.9780396,28.4675069 24.8280664,28.5229818 L24.7680771,28.5432226 C24.6293519,28.5941995 24.4936261,28.6391791 24.3534012,28.6864077 L24.1831816,28.7411329 C24.0811998,28.7703697 23.9777183,28.8056037 23.8742367,28.8348405 C22.2897697,29.3018788 20.5260846,29.5747552 18.6754151,29.5747552 C10.19218,29.5747552 4.7728977,24.4238392 4.7728977,17.964766 C4.7728977,11.5086914 10.2619175,6.3555264 18.6754151,6.3555264 C22.9406535,6.3555264 26.7297268,7.72515579 29.3317622,10.0610973 C29.5207284,10.2080307 29.7156936,10.3767043 29.9196572,10.5708663 C31.2356722,11.8520358 32.1895019,12.9607834 32.3882164,14.5538116 C36.4644885,12.6301832 34.0611676,8.66073186 34.0611676,8.66073186 C30.9484735,4.38391979 25.5006963,2 18.6754151,2 C7.48516336,2 0,9.03931031 0,18.0389823 C0,27.0356557 7.41167649,34 18.6754151,34 C26.0166042,34 31.5761114,31.2427494 35,26.0918334 L35,16.3627419 L31.7215854,16.814787 Z"/>
    <path fill="#263A91" d="M87.1795333,19.7091706 C89.8001333,19.7091706 90.4005049,18.4698575 90.4005049,16.2813299 L90.4005049,13.2729266 C90.4005049,13.2729266 88.8082785,12.6722689 87.2489193,12.6722689 C84.8510848,12.6722689 83.932268,13.5221045 83.932268,15.681403 L83.932268,16.2813299 C83.932268,18.4698575 84.5297181,19.7091706 87.1795333,19.7091706 Z M80.8559114,20.8761418 C79.8983845,19.9590793 79.3703204,18.1183778 79.3703204,16.8096456 L79.3703204,15.1479722 C79.3703204,10.9382536 82.8688361,9.38253562 86.4381985,9.38253562 C88.3817372,9.38253562 90.2230228,10.1242236 91.9554819,10.1242236 C92.7683938,10.1242236 93.7186169,9.91450493 94.9595309,9.41761052 L94.9595309,16.8096456 C94.9595309,20.7343807 92.2352171,23.0719766 87.1795333,23.0719766 C84.5297181,23.0719766 82.7271426,22.08038 82.7271426,22.08038 C82.6212376,22.4318597 82.5146023,23.0003654 82.5146023,23.4599927 C82.5146023,25.0507855 84.140426,25.298502 86.5813528,25.298502 L87.7484985,25.298502 C91.4902304,25.298502 95.5942303,24.6824991 95.5942303,29.7398612 C95.5942303,33.4870296 92.9458759,36 87.1795333,36 C82.3707176,36 79.4389761,34.4800877 79.4389761,32.1468761 C79.4389761,31.2239678 79.795401,30.2696383 80.6404496,29.1735477 C80.9559734,31.9685787 83.8972098,32.6408476 86.8625487,32.6408476 C90.0082913,32.6408476 91.1045903,31.6119839 91.1045903,29.9883084 C91.1045903,28.3259043 89.693498,28.7292656 87.6447847,28.7292656 L85.9086737,28.7292656 C82.1954266,28.7292656 78.9452398,28.2696383 78.9452398,24.6993058 C78.9452398,23.2816953 79.726015,22.2214103 80.8559114,20.8761418 Z M105.102378,19.7091706 C107.717135,19.7091706 108.321158,18.4698575 108.321158,16.2813299 L108.321158,13.2729266 C108.321158,13.2729266 106.729662,12.6722689 105.176877,12.6722689 C102.769547,12.6722689 101.851461,13.5221045 101.851461,15.681403 L101.851461,16.2813299 C101.851461,18.4698575 102.448911,19.7091706 105.102378,19.7091706 Z M98.7765649,20.8761418 C97.8190379,19.9590793 97.287322,18.1183778 97.287322,16.8096456 L97.287322,15.1479722 C97.287322,10.9382536 100.791681,9.38253562 104.357391,9.38253562 C106.306043,9.38253562 108.143676,10.1242236 109.876135,10.1242236 C110.686856,10.1242236 111.641461,9.91450493 112.878724,9.41761052 L112.878724,16.8096456 C112.878724,20.7343807 110.158062,23.0719766 105.102378,23.0719766 C102.448911,23.0719766 100.650718,22.08038 100.650718,22.08038 C100.544813,22.4318597 100.436716,23.0003654 100.436716,23.4599927 C100.436716,25.0507855 102.061079,25.298502 104.504928,25.298502 L105.667691,25.298502 C109.418918,25.298502 113.515614,24.6824991 113.515614,29.7398612 C113.515614,33.4870296 110.862147,36 105.102378,36 C100.291371,36 97.362551,34.4800877 97.362551,32.1468761 C97.362551,31.2239678 97.7160545,30.2696383 98.5632942,29.1735477 C98.8788179,31.9685787 101.814211,32.6408476 104.786124,32.6408476 C107.931136,32.6408476 109.025244,31.6119839 109.025244,29.9883084 C109.025244,28.3259043 107.61123,28.7292656 105.559595,28.7292656 L103.831518,28.7292656 C100.118271,28.7292656 96.8651629,28.2696383 96.8651629,24.6993058 C96.8651629,23.2816953 97.643747,22.2214103 98.7765649,20.8761418 Z M51.2401365,19.7091706 C53.8534327,19.7091706 54.4545347,18.4698575 54.4545347,16.2813299 L54.4545347,13.2729266 C54.4545347,13.2729266 52.8623083,12.6722689 51.3073313,12.6722689 C48.9036539,12.6722689 47.9862978,13.5221045 47.9862978,15.681403 L47.9862978,16.2813299 C47.9862978,18.4698575 48.5844782,19.7091706 51.2401365,19.7091706 Z M44.9106716,20.8761418 C43.9546054,19.9590793 43.4228895,18.1183778 43.4228895,16.8096456 L43.4228895,15.1479722 C43.4228895,10.9382536 46.9235963,9.38253562 50.4951498,9.38253562 C52.4386885,9.38253562 54.2814348,10.1242236 56.0087813,10.1242236 C56.8224235,10.1242236 57.7762986,9.91450493 59.0150215,9.41761052 L59.0150215,16.8096456 C59.0150215,20.7343807 56.2936291,23.0719766 51.2401365,23.0719766 C48.5844782,23.0719766 46.780442,22.08038 46.780442,22.08038 C46.6781889,22.4318597 46.5700928,23.0003654 46.5700928,23.4599927 C46.5700928,25.0507855 48.196647,25.298502 50.636113,25.298502 L51.8032587,25.298502 C55.5464513,25.298502 59.6497209,24.6824991 59.6497209,29.7398612 C59.6497209,33.4870296 56.9977145,36 51.2401365,36 C46.4269385,36 43.4944666,34.4800877 43.4944666,32.1468761 C43.4944666,31.2239678 43.8508916,30.2696383 44.6966705,29.1735477 C45.0151158,31.9685787 47.9475877,32.6408476 50.9216912,32.6408476 C54.0630515,32.6408476 55.1615416,31.6119839 55.1615416,29.9883084 C55.1615416,28.3259043 53.7467974,28.7292656 51.6951626,28.7292656 L49.9641643,28.7292656 C46.2509172,28.7292656 43,28.2696383 43,24.6993058 C43,23.2816953 43.7793144,22.2214103 44.9106716,20.8761418 Z M115.52737,1 C115.813679,1 120.123646,1.0350749 120.123646,3.29886737 L120.123646,21.5853124 C120.123646,23.495433 120.163086,26.8567775 122.633958,26.8567775 C121.680814,28.1275119 120.585245,28.2692729 119.703678,28.2692729 C116.835479,28.2692729 115.52737,25.6898064 115.52737,22.7142857 L115.52737,1 Z M128.077912,17.1651443 C128.431415,17.2345634 129.665756,17.4815491 130.727727,17.4815491 C133.27675,17.4815491 134.156857,16.6689806 134.156857,15.2572159 C134.156857,13.7694556 133.343945,12.7442455 131.154268,12.7442455 C128.750591,12.7442455 128.077912,13.9791743 128.077912,16.1384728 L128.077912,17.1651443 Z M123.481636,22.2210449 L123.481636,15.6079649 C123.481636,11.7161125 126.238817,9.38217026 131.299614,9.38217026 C136.346533,9.38217026 138.753132,11.7161125 138.753132,15.2572159 C138.753132,18.258312 136.987806,21.056266 131.403327,21.056266 C130.268318,21.056266 129.139152,20.8414322 128.077912,20.4161491 L128.077912,21.6912678 C128.077912,23.8111071 129.349502,24.9101206 132.001508,24.9101206 C135.501484,24.9101206 137.867182,23.423091 137.904431,21.3010596 C138.647227,22.3598831 139,23.3156741 139,24.2027768 C139,26.745707 136.067528,28.4461089 132.001508,28.4461089 C126.62957,28.4461089 123.481636,26.108513 123.481636,22.2210449 Z M71.9803452,15.2173913 C71.9803452,13.9466569 71.2769902,12.8111071 68.5519459,12.8111071 C65.5800336,12.8111071 62.8980817,13.8370479 62.8980817,16.8111071 C61.8718991,15.4314943 61.5534539,14.3310194 61.5534539,13.3781513 C61.5534539,10.3032517 65.68886,9.38253562 68.5891953,9.38253562 C73.7851118,9.38253562 76.5415624,11.5739861 76.5415624,15.4314943 L76.5415624,28.3755937 C75.6249367,27.9166971 74.7061198,27.8122031 73.82017,27.8122031 C72.0548439,27.8122031 70.2909784,28.447205 68.2700196,28.447205 C64.6312712,28.447205 61.0560657,27.100475 61.0560657,22.8922178 C61.0560657,16.2827914 70.5320035,18.0124224 71.9803452,15.2173913 Z M72.0869805,18.8264523 C71.2769902,20.7022287 65.6202044,19.6748265 65.6202044,22.8235294 C65.6202044,24.4128608 66.7866198,25.2298137 68.8017356,25.2298137 C70.6722363,25.2298137 72.0869805,24.5911582 72.0869805,24.5911582 L72.0869805,18.8264523 Z"/>
  </g>
</svg>
